<?xml version="1.0" encoding="UTF-8" standalone="no"?><!DOCTYPE svg PUBLIC "-//W3C//DTD SVG 1.1//EN" "http://www.w3.org/Graphics/SVG/1.1/DTD/svg11.dtd"><svg width="100%" height="100%" viewBox="0 0 100 100" version="1.1" xmlns="http://www.w3.org/2000/svg" xmlns:xlink="http://www.w3.org/1999/xlink" xml:space="preserve" style="fill-rule:evenodd;clip-rule:evenodd;stroke-linejoin:round;stroke-miterlimit:1.41421;"><g><path d="M71.5,38.1l-2.2,0c-0.8,0 -1.4,0.6 -1.4,1.4l0,15.9c0,4.8 -3.8,12.9 -17.9,12.9c-14.1,0 -17.9,-8.1 -17.9,-12.9l0,-15.8c0,-0.8 -0.6,-1.4 -1.4,-1.4l-2.2,0c-0.8,0 -1.4,0.6 -1.4,1.4l0,15.9c0,8 5.9,16.6 19.4,17.8l0,7.5l-6.3,0c-0.8,0 -1.4,0.6 -1.4,1.4l0,4.3c0,0.8 0.6,1.4 1.4,1.4l19.8,0c0.8,0 1.4,-0.6 1.4,-1.4l0,-4.3c0,-0.8 -0.6,-1.4 -1.4,-1.4l-6.3,0l0,-7.5c13.5,-1.2 19.4,-9.8 19.4,-17.8l0,-15.9c-0.2,-0.8 -0.8,-1.5 -1.6,-1.5Z" style="fill:#fff;fill-rule:nonzero;"/><path d="M50,12.5c-9.8,0 -12.6,4 -12.6,6.7l0,36.9c0,2.7 2.7,6.7 12.6,6.7c9.8,0 12.6,-4 12.6,-6.7l0,-10.9l0,-2.4l0,-23.6c0,-2.6 -2.8,-6.7 -12.6,-6.7Z" style="fill:#fff;fill-rule:nonzero;"/></g></svg>