<?xml version="1.0" encoding="UTF-8" standalone="no"?><!DOCTYPE svg PUBLIC "-//W3C//DTD SVG 1.1//EN" "http://www.w3.org/Graphics/SVG/1.1/DTD/svg11.dtd"><svg width="100%" height="100%" viewBox="0 0 388 79" version="1.1" xmlns="http://www.w3.org/2000/svg" xmlns:xlink="http://www.w3.org/1999/xlink" xml:space="preserve" style="fill-rule:evenodd;clip-rule:evenodd;stroke-linejoin:round;stroke-miterlimit:1.41421;"><path d="M6.326,7.276l-6.326,0l0,26.914l2.357,0l0,-10.491l3.851,0c5.854,0 10.058,-2.318 10.058,-8.369c0,-5.579 -3.693,-8.054 -9.94,-8.054ZM6.208,21.774l-3.851,0l0,-12.573l3.929,0c4.715,0 7.505,1.611 7.505,6.169c0,4.95 -3.104,6.404 -7.583,6.404Z" style="fill:#D7D3C8;fill-rule:nonzero;"/><path d="M28.486,13.209c-2.869,0 -4.715,1.65 -5.815,5.029l-0.197,-4.597l-1.964,0l0,20.549l2.278,0l0,-12.495c1.061,-4.243 2.633,-6.325 5.501,-6.325c0.707,0 1.218,0.078 1.807,0.235l0.433,-2.161c-0.55,-0.157 -1.258,-0.235 -2.043,-0.235Z" style="fill:#D7D3C8;fill-rule:nonzero;"/><path d="M40.155,13.209c-5.383,0 -8.723,4.125 -8.723,10.726c0,6.601 3.222,10.687 8.683,10.687c5.423,0 8.723,-4.126 8.723,-10.766c0,-6.718 -3.222,-10.647 -8.683,-10.647ZM40.155,15.134c3.968,0 6.286,2.947 6.286,8.722c0,5.894 -2.396,8.841 -6.326,8.841c-3.929,0 -6.247,-2.987 -6.247,-8.762c0,-5.894 2.397,-8.801 6.287,-8.801Z" style="fill:#D7D3C8;fill-rule:nonzero;"/><path d="M54.928,4.604c-1.022,0 -1.69,0.746 -1.69,1.65c0,0.904 0.668,1.65 1.69,1.65c1.061,0 1.729,-0.746 1.729,-1.65c0,-0.904 -0.668,-1.65 -1.729,-1.65ZM56.107,13.641l-2.279,0l0,19.881c0,4.557 -1.218,5.657 -3.929,6.993l0.668,1.651c3.732,-1.729 5.54,-3.222 5.54,-8.723l0,-19.802Z" style="fill:#D7D3C8;fill-rule:nonzero;"/><path d="M77.323,23.149c0,-6.051 -2.671,-9.94 -8.015,-9.94c-5.029,0 -8.211,4.321 -8.211,10.883c0,6.601 3.3,10.53 8.722,10.53c2.711,0 4.793,-0.943 6.719,-2.515l-1.061,-1.454c-1.808,1.336 -3.301,2.044 -5.54,2.044c-3.536,0 -6.129,-2.319 -6.404,-7.898l13.712,0c0.039,-0.393 0.078,-1.021 0.078,-1.65ZM75.084,23.031l-11.591,0c0.275,-5.54 2.711,-7.937 5.894,-7.937c3.89,0 5.697,2.869 5.697,7.348l0,0.589Z" style="fill:#D7D3C8;fill-rule:nonzero;"/><path d="M89.228,13.209c-5.264,0 -8.683,4.243 -8.683,10.844c0,6.679 3.458,10.569 8.723,10.569c2.318,0 4.282,-0.825 5.893,-2.2l-1.1,-1.533c-1.454,1.1 -2.829,1.729 -4.754,1.729c-3.733,0 -6.326,-2.711 -6.326,-8.605c0,-5.932 2.633,-8.84 6.365,-8.84c1.886,0 3.222,0.55 4.558,1.611l1.139,-1.493c-1.728,-1.493 -3.496,-2.082 -5.815,-2.082Z" style="fill:#D7D3C8;fill-rule:nonzero;"/><path d="M109.631,31.714c-1.022,0.629 -2.004,0.943 -3.144,0.943c-2.082,0 -3.025,-1.178 -3.025,-3.575l0,-13.595l5.029,0l0.275,-1.846l-5.304,0l0,-5.187l-2.279,0.275l0,4.912l-3.457,0l0,1.846l3.457,0l0,13.713c0,3.575 1.925,5.422 5.029,5.422c1.651,0 3.065,-0.472 4.322,-1.297l-0.903,-1.611Z" style="fill:#D7D3C8;fill-rule:nonzero;"/><g><path d="M270.033,56.763l-1.243,0.15l-2.165,15.282c1.457,0.515 2.422,0.729 3.686,0.729c4.351,0 5.787,-4.373 5.787,-7.437c0,-2.744 -1.221,-4.244 -3.386,-4.244c-1.393,0 -2.551,0.643 -3.537,1.65l0.858,-6.13ZM272.433,62.272c1.501,0 2.379,0.964 2.379,3.129c0,2.572 -1.05,6.494 -4.458,6.494c-1.007,0 -1.65,-0.171 -2.357,-0.45l1.007,-7.287c0.965,-1.051 1.993,-1.886 3.429,-1.886Z" style="fill:#D7D3C8;fill-rule:nonzero;"/><path d="M286.601,61.479l-1.308,0l-4.779,10.266l-1.929,-10.266l-1.308,0l2.294,11.209l0.493,-0.021c-1.029,1.972 -1.737,2.872 -4.073,3.408l0.065,0.985c2.786,-0.535 4.05,-1.843 5.208,-4.286l5.337,-11.295Z" style="fill:#D7D3C8;fill-rule:nonzero;"/><g><path d="M295.53,61.286c0.268,0.413 0.386,0.782 0.536,1.559c1.046,-1.021 2.337,-1.559 3.745,-1.559c1.273,0 2.317,0.413 3.125,1.256c0.217,0.212 0.427,0.484 0.608,0.752c1.406,-1.44 2.665,-2.008 4.352,-2.008c1.201,0 2.34,0.359 3.035,0.958c0.868,0.75 1.144,1.652 1.144,3.752l0,10.927l-3.903,0l0,-10.144c0,-1.839 -0.218,-2.194 -1.265,-2.194c-0.75,0 -1.805,0.511 -2.67,1.292l0,11.046l-3.809,0l0,-10c0,-1.917 -0.278,-2.367 -1.396,-2.367c-0.742,0 -1.77,0.384 -2.636,1.168l0,11.199l-3.929,0l0,-10.719c0,-2.219 -0.153,-3.178 -0.575,-3.932l3.638,-0.986Z" style="fill:#D7D3C8;fill-rule:nonzero;"/><path d="M319.213,65.785c-0.276,0.813 -0.423,1.892 -0.423,3.424c0,1.767 0.181,3.094 0.509,3.872c0.362,0.841 1.267,1.261 2.041,1.261c1.742,0 2.487,-1.56 2.487,-5.192c0,-2.072 -0.271,-3.426 -0.808,-4.118c-0.386,-0.506 -1.013,-0.808 -1.737,-0.808c-0.963,0 -1.744,0.598 -2.069,1.561ZM326.444,63.566c1.228,1.44 1.776,3.12 1.776,5.611c0,2.641 -0.605,4.446 -1.93,5.944c-1.165,1.319 -2.699,2.132 -5.066,2.132c-4.178,0 -6.904,-3.123 -6.904,-7.953c0,-4.835 2.755,-8.048 6.904,-8.048c2.191,0 3.901,0.753 5.22,2.314Z" style="fill:#D7D3C8;fill-rule:nonzero;"/><path d="M341.158,61.554l0,2.762l-6.789,9.814l7.054,0l-0.963,2.793l-11.311,0l0,-2.491l7.227,-10.056l-6.624,0l0,-2.822l11.406,0Z" style="fill:#D7D3C8;fill-rule:nonzero;"/><path d="M347.488,61.192l0,15.731l-4.022,0l0,-15.099l4.022,-0.632ZM347.96,57.322c0,1.383 -1.099,2.487 -2.49,2.487c-1.345,0 -2.452,-1.104 -2.452,-2.487c0,-1.379 1.144,-2.493 2.52,-2.493c1.349,0 2.422,1.114 2.422,2.493Z" style="fill:#D7D3C8;fill-rule:nonzero;"/><path d="M354.811,58.705l0,11.975c0,2.645 0.032,3.001 0.273,3.42c0.153,0.273 0.478,0.42 0.814,0.42c0.144,0 0.23,0 0.448,-0.055l0.687,2.399c-0.687,0.269 -1.529,0.418 -2.4,0.418c-1.715,0 -3.095,-0.808 -3.573,-2.096c-0.301,-0.781 -0.367,-1.264 -0.367,-3.454l0,-11.472c0,-2.009 -0.052,-3.237 -0.202,-4.623l4.113,-0.93c0.145,0.84 0.207,1.831 0.207,3.998Z" style="fill:#D7D3C8;fill-rule:nonzero;"/><path d="M363.153,58.705l0,11.975c0,2.645 0.034,3.001 0.281,3.42c0.141,0.273 0.467,0.42 0.803,0.42c0.152,0 0.244,0 0.456,-0.055l0.685,2.399c-0.685,0.269 -1.527,0.418 -2.401,0.418c-1.712,0 -3.095,-0.808 -3.575,-2.096c-0.307,-0.781 -0.357,-1.264 -0.357,-3.454l0,-11.472c0,-2.009 -0.06,-3.237 -0.215,-4.623l4.108,-0.93c0.165,0.84 0.215,1.831 0.215,3.998Z" style="fill:#D7D3C8;fill-rule:nonzero;"/><path d="M374.677,70.2c-2.781,0 -3.757,0.506 -3.757,2.345c0,1.196 0.761,2.006 1.781,2.006c0.748,0 1.504,-0.39 2.099,-1.049l0.066,-3.302l-0.189,0ZM369.464,62.125c1.496,-0.632 2.781,-0.899 4.198,-0.899c2.586,0 4.354,0.957 4.96,2.67c0.199,0.63 0.291,1.11 0.273,2.762l-0.097,5.16c0,0.091 0,0.186 0,0.273c0,1.65 0.273,2.282 1.448,3.15l-2.135,2.466c-0.94,-0.393 -1.776,-1.086 -2.167,-1.864c-0.297,0.303 -0.63,0.597 -0.934,0.81c-0.745,0.54 -1.834,0.842 -3.093,0.842c-3.423,0 -5.283,-1.745 -5.283,-4.801c0,-3.608 2.498,-5.291 7.387,-5.291c0.294,0 0.572,0 0.905,0.034l0,-0.626c0,-1.715 -0.333,-2.285 -1.813,-2.285c-1.274,0 -2.788,0.627 -4.436,1.74l-1.712,-2.883c0.815,-0.511 1.416,-0.809 2.499,-1.258Z" style="fill:#D7D3C8;fill-rule:nonzero;"/></g></g><path d="M143.223,44.139l7.776,0l0,-40.397l-7.776,0l0,16.194l-14.382,0l0,-16.194l-7.717,0l0,40.397l7.717,0l0,-18.065l14.382,0l0,18.065Z" style="fill:#D7D3C8;fill-rule:nonzero;"/><path d="M173.565,2.865c-10.815,0 -17.714,7.834 -17.714,21.105c0,13.505 6.899,21.046 17.714,21.046c10.816,0 17.656,-7.775 17.656,-21.105c0,-13.505 -6.84,-21.046 -17.656,-21.046ZM173.565,8.769c6.08,0 9.53,4.327 9.53,15.142c0,10.933 -3.508,15.201 -9.53,15.201c-5.905,0 -9.588,-4.268 -9.588,-15.142c0,-10.874 3.567,-15.201 9.588,-15.201Z" style="fill:#D7D3C8;fill-rule:nonzero;"/><path d="M203.849,3.742l-7.717,0l0,40.397l23.034,0l0.877,-6.314l-16.194,0l0,-34.083Z" style="fill:#D7D3C8;fill-rule:nonzero;"/><path d="M238.283,2.865c-10.815,0 -17.714,7.834 -17.714,21.105c0,13.505 6.899,21.046 17.714,21.046c10.816,0 17.656,-7.775 17.656,-21.105c0,-13.505 -6.84,-21.046 -17.656,-21.046ZM238.283,8.769c6.08,0 9.53,4.327 9.53,15.142c0,10.933 -3.508,15.201 -9.53,15.201c-5.904,0 -9.588,-4.268 -9.588,-15.142c0,-10.874 3.567,-15.201 9.588,-15.201Z" style="fill:#D7D3C8;fill-rule:nonzero;"/><path d="M270.789,3.742l-9.939,0l0,40.397l10.991,0c9.646,0 19.643,-4.034 19.643,-20.403c0,-16.72 -10.055,-19.994 -20.695,-19.994ZM272.133,9.529c5.963,0 11.225,2.047 11.225,14.207c0,11.926 -4.969,14.615 -10.991,14.615l-3.8,0l0,-28.822l3.566,0Z" style="fill:#D7D3C8;fill-rule:nonzero;"/><path d="M319.839,3.742l-23.444,0l0,40.397l23.678,0l0,-5.788l-15.961,0l0,-11.867l12.979,0l0,-5.73l-12.979,0l0,-11.283l14.908,0l0.819,-5.729Z" style="fill:#D7D3C8;fill-rule:nonzero;"/><path d="M340.359,2.865c-9.822,0 -17.539,7.424 -17.539,20.988c0,13.738 7.308,21.163 17.773,21.163c5.495,0 9.705,-2.397 12.16,-4.911l-3.624,-4.677c-2.339,1.754 -4.736,3.391 -8.185,3.391c-5.788,0 -9.997,-4.326 -9.997,-14.966c0,-10.933 4.326,-15.025 9.88,-15.025c2.806,0 5.203,0.994 7.483,2.923l3.975,-4.619c-3.273,-2.747 -6.606,-4.267 -11.926,-4.267Z" style="fill:#D7D3C8;fill-rule:nonzero;"/><path d="M363.627,3.742l-7.717,0l0,40.397l7.717,0l0,-40.397ZM386.311,3.742l-8.36,0l-13.973,18.825l14.265,21.572l9.179,0l-15.084,-22.099l13.973,-18.298Z" style="fill:#D7D3C8;fill-rule:nonzero;"/></svg>
